<?xml version="1.0" encoding="UTF-8"?>
<svg id="Capa_2" xmlns="http://www.w3.org/2000/svg" version="1.1" viewBox="0 0 29.3 32">
  <!-- Generator: Adobe Illustrator 30.2.1, SVG Export Plug-In . SVG Version: 2.1.1 Build 1)  -->
  <defs>
    <style>
      .st0 {
        fill: #0b56a1;
      }
    </style>
  </defs>
  <path class="st0" d="M29.2,9.8c0-.5-.2-5.1-2.6-7.5C24.2-.2,21,0,20.5,0c-.7,0-1.8.2-3,.8-1.2.6-2,1.4-2.5,2-.2.2-.6.2-.8,0-.5-.6-1.3-1.4-2.5-2C10.6.2,9.4,0,8.8,0c-.4,0-3.6-.2-6.1,2.3C.3,4.8,0,9.4.1,9.8c-.2,2.8-.2,5.5,1.2,10,.6,2.1,3.2,7,6.3,9.5,1.1.9,2.2,1.7,3.1,2.3.6.4,1.4.5,2,.2.2,0,.4-.2.6-.4.4-.4.6-.9.7-1.2,0-.3,0-.7,0-1-.3-1.3-.7-2.6-1-3.9-.4-1.1-.1-2.3.6-3,.3-.3.7-.4,1.2-.4s.8.1,1.2.4c.5.5.8,1.1.8,1.9s0,.7-.2,1.1c-.3,1.3-.7,2.6-1,3.9,0,.3-.1.7,0,1,0,.4.3.8.7,1.2.2.2.4.3.6.4.7.3,1.4.2,2-.2.9-.6,2-1.4,3.1-2.3,3-2.5,5.6-7.4,6.3-9.5,1.4-4.5,1.4-7.2,1.2-10h0ZM18.6,15.2c-1.4,1.1-3.5,1.3-4,1.3s-2.6-.1-4-1.3c-1.7-1.4-1.9-3.4-2-4,0-.6.4-1,.9-1,.5,0,1,.4,1,.9,0,.3.1,1.6,1.3,2.6,1.1.9,2.7.8,2.7.8s1.6,0,2.7-.8c1.1-1,1.3-2.3,1.3-2.6,0-.6.5-1,1-.9.5,0,1,.5.9,1,0,.6-.2,2.6-2,4h0Z"/>
</svg>